<?xml version="1.0" encoding="UTF-8"?>
<svg
  xmlns="http://www.w3.org/2000/svg"
  width="1000"
  height="1500"
  viewBox="0 0 1000 1500"
  role="img"
  aria-labelledby="title desc"
>
  <title id="title">North Tower Dorm Inventory SVG</title>
  <desc id="desc">A clean architectural SVG elevation of a 15 floor dormitory tower with inventory floor rows and a connex storage container.</desc>

  <defs>
    <linearGradient id="busyFloor" x1="0" y1="0" x2="1" y2="0">
      <stop offset="0%" stop-color="#fff8f2"/>
      <stop offset="100%" stop-color="#f4b493"/>
    </linearGradient>

    <linearGradient id="connexOrange" x1="0" y1="0" x2="1" y2="0">
      <stop offset="0%" stop-color="#f4a36f"/>
      <stop offset="100%" stop-color="#e28552"/>
    </linearGradient>

    <linearGradient id="glass" x1="0" y1="0" x2="0" y2="1">
      <stop offset="0%" stop-color="#edf4f4"/>
      <stop offset="100%" stop-color="#c6d4d3"/>
    </linearGradient>

    <pattern id="groundHatch" width="7" height="7" patternUnits="userSpaceOnUse" patternTransform="rotate(45)">
      <line x1="0" y1="0" x2="0" y2="7" stroke="#1f1d1b" stroke-width="1"/>
    </pattern>

    <filter id="softShadow" x="-20%" y="-20%" width="140%" height="160%">
      <feDropShadow dx="0" dy="8" stdDeviation="10" flood-color="#000000" flood-opacity="0.12"/>
    </filter>

    <symbol id="window-double" viewBox="0 0 70 40">
      <rect x="0.5" y="0.5" width="69" height="39" fill="url(#glass)" stroke="#8a8a82" stroke-width="1"/>
      <line x1="35" y1="1" x2="35" y2="39" stroke="#8a8a82" stroke-width="1"/>
      <line x1="0" y1="30" x2="70" y2="30" stroke="#77776f" stroke-width="1"/>
      <rect x="4" y="5" width="27" height="22" fill="#ffffff" opacity="0.22"/>
      <rect x="39" y="5" width="24" height="22" fill="#ffffff" opacity="0.16"/>
      <rect x="-2" y="39" width="74" height="4" fill="#9b9b92" opacity="0.7"/>
    </symbol>

    <symbol id="core-slit-window" viewBox="0 0 28 40">
      <rect x="1" y="1" width="26" height="38" fill="#f2f0eb" stroke="#aaa39a" stroke-width="1"/>
      <line x1="5" y1="8" x2="23" y2="8" stroke="#4a4a43" stroke-width="1"/>
      <line x1="5" y1="12" x2="23" y2="12" stroke="#4a4a43" stroke-width="1"/>
      <line x1="5" y1="16" x2="23" y2="16" stroke="#4a4a43" stroke-width="1"/>
      <line x1="5" y1="20" x2="23" y2="20" stroke="#4a4a43" stroke-width="1"/>
      <line x1="5" y1="24" x2="23" y2="24" stroke="#4a4a43" stroke-width="1"/>
      <line x1="5" y1="28" x2="23" y2="28" stroke="#4a4a43" stroke-width="1"/>
    </symbol>

    <style>
      .bg { fill: #f7f5f1; }
      .eyebrow { font: 700 20px Inter, Arial, sans-serif; letter-spacing: 0.28em; fill: #8d8781; }
      .title { font: 800 42px Inter, Arial, sans-serif; letter-spacing: 0.14em; fill: #1f1d1b; }
      .subtitle { font: 400 26px "Courier New", monospace; letter-spacing: 0.06em; fill: #726d68; }
      .floor-label { font: 700 17px Inter, Arial, sans-serif; fill: #1f1d1b; }
      .stat-text { font: 400 16px "Courier New", monospace; fill: #4f4a45; }
      .badge-text { font: 700 11px "Courier New", monospace; fill: #ffffff; }
      .small-mono { font: 400 15px "Courier New", monospace; fill: #3f3934; }
      .legend-text { font: 400 24px "Courier New", monospace; fill: #7b756f; }
      .summary-text { font: 400 31px "Courier New", monospace; fill: #706b65; }
      .summary-strong { font: 800 31px Inter, Arial, sans-serif; fill: #1f1d1b; }
      .summary-orange { font: 800 31px Inter, Arial, sans-serif; fill: #e76522; }
    </style>
  </defs>

  <rect class="bg" width="1000" height="1500"/>

  <!-- Header -->
  <text x="38" y="66" class="title">NORTH TOWER</text>
  <text x="40" y="104" class="subtitle">15 FLOORS</text>

  <!-- Building group -->
  <g id="north-tower-dorm-building" filter="url(#softShadow)">
    <!-- Dorm roof cap -->
    <polygon points="110,185 390,105 670,185" fill="#25231f"/>
    <polygon points="245,148 535,148 600,185 180,185" fill="#2f2d28"/>
    <rect x="320" y="118" width="140" height="28" fill="#292722"/>
    <rect x="365" y="129" width="58" height="16" fill="#3a3730"/>
    <line x1="110" y1="185" x2="670" y2="185" stroke="#171514" stroke-width="2"/>

    <!-- Main building shell -->
    <rect x="110" y="185" width="560" height="960" fill="#fffaf7" stroke="#bdb7ae" stroke-width="1.5"/>

    <!-- Subtle left/right facade panel split -->
    <rect x="110" y="185" width="250" height="960" fill="#ffffff" opacity="0.18"/>
    <rect x="378" y="185" width="54" height="960" fill="#eee8df" stroke="#d0c8bf" stroke-width="1"/>
    <line x1="378" y1="185" x2="378" y2="1145" stroke="#c9c0b7"/>
    <line x1="432" y1="185" x2="432" y2="1145" stroke="#c9c0b7"/>

    
    <g id="floor-15" class="floor-row empty">
      <rect x="110" y="185" width="560" height="64" fill="#fffaf7" opacity="0.76"/>
      <line x1="110" y1="185" x2="670" y2="185" stroke="#d9d2ca" stroke-width="1"/>
      
      <rect x="132" y="203" width="36" height="22" rx="4" fill="#151412"/>
      <text x="150" y="218" text-anchor="middle" class="badge-text">L15</text>
      <text x="182" y="220" class="floor-label">Floor 15</text>

      <use href="#window-double" x="288" y="204"/>
      <use href="#window-double" x="470" y="204"/>
      <use href="#core-slit-window" x="395" y="203"/>

      <text x="526" y="220" class="stat-text">0 lines · 0 units</text>
      
    </g>

    <g id="floor-14" class="floor-row empty">
      <rect x="110" y="249" width="560" height="64" fill="#fffaf7" opacity="0.76"/>
      <line x1="110" y1="249" x2="670" y2="249" stroke="#d9d2ca" stroke-width="1"/>
      
      <rect x="132" y="267" width="36" height="22" rx="4" fill="#151412"/>
      <text x="150" y="282" text-anchor="middle" class="badge-text">L14</text>
      <text x="182" y="284" class="floor-label">Floor 14</text>

      <use href="#window-double" x="288" y="268"/>
      <use href="#window-double" x="470" y="268"/>
      <use href="#core-slit-window" x="395" y="267"/>

      <text x="526" y="284" class="stat-text">0 lines · 0 units</text>
      
    </g>

    <g id="floor-13" class="floor-row empty">
      <rect x="110" y="313" width="560" height="64" fill="#fffaf7" opacity="0.76"/>
      <line x1="110" y1="313" x2="670" y2="313" stroke="#d9d2ca" stroke-width="1"/>
      
      <rect x="132" y="331" width="36" height="22" rx="4" fill="#151412"/>
      <text x="150" y="346" text-anchor="middle" class="badge-text">L13</text>
      <text x="182" y="348" class="floor-label">Floor 13</text>

      <use href="#window-double" x="288" y="332"/>
      <use href="#window-double" x="470" y="332"/>
      <use href="#core-slit-window" x="395" y="331"/>

      <text x="526" y="348" class="stat-text">0 lines · 0 units</text>
      
    </g>

    <g id="floor-12" class="floor-row empty">
      <rect x="110" y="377" width="560" height="64" fill="#fffaf7" opacity="0.76"/>
      <line x1="110" y1="377" x2="670" y2="377" stroke="#d9d2ca" stroke-width="1"/>
      
      <rect x="132" y="395" width="36" height="22" rx="4" fill="#151412"/>
      <text x="150" y="410" text-anchor="middle" class="badge-text">L12</text>
      <text x="182" y="412" class="floor-label">Floor 12</text>

      <use href="#window-double" x="288" y="396"/>
      <use href="#window-double" x="470" y="396"/>
      <use href="#core-slit-window" x="395" y="395"/>

      <text x="526" y="412" class="stat-text">0 lines · 0 units</text>
      
    </g>

    <g id="floor-11" class="floor-row empty">
      <rect x="110" y="441" width="560" height="64" fill="#fffaf7" opacity="0.76"/>
      <line x1="110" y1="441" x2="670" y2="441" stroke="#d9d2ca" stroke-width="1"/>
      
      <rect x="132" y="459" width="36" height="22" rx="4" fill="#151412"/>
      <text x="150" y="474" text-anchor="middle" class="badge-text">L11</text>
      <text x="182" y="476" class="floor-label">Floor 11</text>

      <use href="#window-double" x="288" y="460"/>
      <use href="#window-double" x="470" y="460"/>
      <use href="#core-slit-window" x="395" y="459"/>

      <text x="526" y="476" class="stat-text">0 lines · 0 units</text>
      
    </g>

    <g id="floor-10" class="floor-row empty">
      <rect x="110" y="505" width="560" height="64" fill="#fffaf7" opacity="0.76"/>
      <line x1="110" y1="505" x2="670" y2="505" stroke="#d9d2ca" stroke-width="1"/>
      
      <rect x="132" y="523" width="36" height="22" rx="4" fill="#151412"/>
      <text x="150" y="538" text-anchor="middle" class="badge-text">L10</text>
      <text x="182" y="540" class="floor-label">Floor 10</text>

      <use href="#window-double" x="288" y="524"/>
      <use href="#window-double" x="470" y="524"/>
      <use href="#core-slit-window" x="395" y="523"/>

      <text x="526" y="540" class="stat-text">0 lines · 0 units</text>
      
    </g>

    <g id="floor-9" class="floor-row empty">
      <rect x="110" y="569" width="560" height="64" fill="#fffaf7" opacity="1"/>
      <line x1="110" y1="569" x2="670" y2="569" stroke="#d9d2ca" stroke-width="1"/>
      <rect x="110" y="569" width="560" height="64" fill="none" stroke="#e76522" stroke-width="2"/>
      <rect x="132" y="587" width="36" height="22" rx="4" fill="#151412"/>
      <text x="150" y="602" text-anchor="middle" class="badge-text">L9</text>
      <text x="182" y="604" class="floor-label">Floor 9</text>

      <use href="#window-double" x="288" y="588"/>
      <use href="#window-double" x="470" y="588"/>
      <use href="#core-slit-window" x="395" y="587"/>

      <text x="526" y="604" class="stat-text">1 line · 0 units</text>
      
    </g>

    <g id="floor-8" class="floor-row empty">
      <rect x="110" y="633" width="560" height="64" fill="#fffaf7" opacity="0.76"/>
      <line x1="110" y1="633" x2="670" y2="633" stroke="#d9d2ca" stroke-width="1"/>
      
      <rect x="132" y="651" width="36" height="22" rx="4" fill="#151412"/>
      <text x="150" y="666" text-anchor="middle" class="badge-text">L8</text>
      <text x="182" y="668" class="floor-label">Floor 8</text>

      <use href="#window-double" x="288" y="652"/>
      <use href="#window-double" x="470" y="652"/>
      <use href="#core-slit-window" x="395" y="651"/>

      <text x="526" y="668" class="stat-text">0 lines · 0 units</text>
      
    </g>

    <g id="floor-7" class="floor-row empty">
      <rect x="110" y="697" width="560" height="64" fill="#fffaf7" opacity="0.76"/>
      <line x1="110" y1="697" x2="670" y2="697" stroke="#d9d2ca" stroke-width="1"/>
      
      <rect x="132" y="715" width="36" height="22" rx="4" fill="#151412"/>
      <text x="150" y="730" text-anchor="middle" class="badge-text">L7</text>
      <text x="182" y="732" class="floor-label">Floor 7</text>

      <use href="#window-double" x="288" y="716"/>
      <use href="#window-double" x="470" y="716"/>
      <use href="#core-slit-window" x="395" y="715"/>

      <text x="526" y="732" class="stat-text">0 lines · 0 units</text>
      
    </g>

    <g id="floor-6" class="floor-row busy">
      <rect x="110" y="761" width="560" height="64" fill="url(#busyFloor)" opacity="1"/>
      <line x1="110" y1="761" x2="670" y2="761" stroke="#d9d2ca" stroke-width="1"/>
      
      <rect x="132" y="779" width="36" height="22" rx="4" fill="#151412"/>
      <text x="150" y="794" text-anchor="middle" class="badge-text">L6</text>
      <text x="182" y="796" class="floor-label">Floor 6</text>

      <use href="#window-double" x="288" y="780"/>
      <use href="#window-double" x="470" y="780"/>
      <use href="#core-slit-window" x="395" y="779"/>

      <text x="526" y="796" class="stat-text">1 line · 400 units</text>
      <rect x="428" y="820" width="230" height="3" rx="1.5" fill="#42a36d"/><rect x="200" y="820" width="115" height="3" rx="1.5" fill="#42a36d" opacity=".75"/>
    </g>

    <g id="floor-5" class="floor-row busy">
      <rect x="110" y="825" width="560" height="64" fill="url(#busyFloor)" opacity="1"/>
      <line x1="110" y1="825" x2="670" y2="825" stroke="#d9d2ca" stroke-width="1"/>
      
      <rect x="132" y="843" width="36" height="22" rx="4" fill="#151412"/>
      <text x="150" y="858" text-anchor="middle" class="badge-text">L5</text>
      <text x="182" y="860" class="floor-label">Floor 5</text>

      <use href="#window-double" x="288" y="844"/>
      <use href="#window-double" x="470" y="844"/>
      <use href="#core-slit-window" x="395" y="843"/>

      <text x="526" y="860" class="stat-text">2 lines · 90 units</text>
      <rect x="428" y="884" width="230" height="3" rx="1.5" fill="#2ea9cf"/><rect x="200" y="884" width="115" height="3" rx="1.5" fill="#2ea9cf" opacity=".75"/>
    </g>

    <g id="floor-4" class="floor-row busy">
      <rect x="110" y="889" width="560" height="64" fill="url(#busyFloor)" opacity="1"/>
      <line x1="110" y1="889" x2="670" y2="889" stroke="#d9d2ca" stroke-width="1"/>
      
      <rect x="132" y="907" width="36" height="22" rx="4" fill="#151412"/>
      <text x="150" y="922" text-anchor="middle" class="badge-text">L4</text>
      <text x="182" y="924" class="floor-label">Floor 4</text>

      <use href="#window-double" x="288" y="908"/>
      <use href="#window-double" x="470" y="908"/>
      <use href="#core-slit-window" x="395" y="907"/>

      <text x="526" y="924" class="stat-text">5 lines · 632 units</text>
      <rect x="428" y="948" width="230" height="3" rx="1.5" fill="#e76522"/><rect x="200" y="948" width="160" height="3" rx="1.5" fill="#e76522" opacity=".75"/>
    </g>

    <g id="floor-3" class="floor-row busy">
      <rect x="110" y="953" width="560" height="64" fill="url(#busyFloor)" opacity="1"/>
      <line x1="110" y1="953" x2="670" y2="953" stroke="#d9d2ca" stroke-width="1"/>
      
      <rect x="132" y="971" width="36" height="22" rx="4" fill="#151412"/>
      <text x="150" y="986" text-anchor="middle" class="badge-text">L3</text>
      <text x="182" y="988" class="floor-label">Floor 3</text>

      <use href="#window-double" x="288" y="972"/>
      <use href="#window-double" x="470" y="972"/>
      <use href="#core-slit-window" x="395" y="971"/>

      <text x="526" y="988" class="stat-text">3 lines · 174 units</text>
      <rect x="428" y="1012" width="230" height="3" rx="1.5" fill="#42a36d"/><rect x="200" y="1012" width="115" height="3" rx="1.5" fill="#42a36d" opacity=".75"/>
    </g>

    <g id="floor-2" class="floor-row busy">
      <rect x="110" y="1017" width="560" height="64" fill="url(#busyFloor)" opacity="1"/>
      <line x1="110" y1="1017" x2="670" y2="1017" stroke="#d9d2ca" stroke-width="1"/>
      
      <rect x="132" y="1035" width="36" height="22" rx="4" fill="#151412"/>
      <text x="150" y="1050" text-anchor="middle" class="badge-text">L2</text>
      <text x="182" y="1052" class="floor-label">Floor 2</text>

      <use href="#window-double" x="288" y="1036"/>
      <use href="#window-double" x="470" y="1036"/>
      <use href="#core-slit-window" x="395" y="1035"/>

      <text x="526" y="1052" class="stat-text">3 lines · 152 units</text>
      <rect x="428" y="1076" width="230" height="3" rx="1.5" fill="#2ea9cf"/><rect x="200" y="1076" width="115" height="3" rx="1.5" fill="#2ea9cf" opacity=".75"/>
    </g>

    <g id="floor-1" class="floor-row busy">
      <rect x="110" y="1081" width="560" height="64" fill="url(#busyFloor)" opacity="1"/>
      <line x1="110" y1="1081" x2="670" y2="1081" stroke="#d9d2ca" stroke-width="1"/>
      
      <rect x="132" y="1099" width="36" height="22" rx="4" fill="#151412"/>
      <text x="150" y="1114" text-anchor="middle" class="badge-text">L1</text>
      <text x="182" y="1116" class="floor-label">Floor 1</text>

      <use href="#window-double" x="288" y="1100"/>
      <use href="#window-double" x="470" y="1100"/>
      <use href="#core-slit-window" x="395" y="1099"/>

      <text x="526" y="1116" class="stat-text">3 lines · 512 units</text>
      <rect x="428" y="1140" width="230" height="3" rx="1.5" fill="#2ea9cf"/><rect x="200" y="1140" width="160" height="3" rx="1.5" fill="#2ea9cf" opacity=".75"/>
    </g>

    <!-- Ground lobby / dorm entrance -->
    <rect x="110" y="1145" width="560" height="116" fill="#f3eee6" stroke="#bdb7ae" stroke-width="1.5"/>
    <line x1="180" y1="1145" x2="180" y2="1261" stroke="#ddd5cc"/>
    <line x1="250" y1="1145" x2="250" y2="1261" stroke="#ddd5cc"/>
    <line x1="320" y1="1145" x2="320" y2="1261" stroke="#ddd5cc"/>
    <line x1="460" y1="1145" x2="460" y2="1261" stroke="#ddd5cc"/>
    <line x1="530" y1="1145" x2="530" y2="1261" stroke="#ddd5cc"/>
    <line x1="600" y1="1145" x2="600" y2="1261" stroke="#ddd5cc"/>

    <rect x="330" y="1163" width="130" height="24" fill="#cfb79e" stroke="#927766" stroke-width="1"/>
    <rect x="346" y="1187" width="98" height="66" fill="#e9e1d8" stroke="#91867c" stroke-width="1.5"/>
    <rect x="360" y="1196" width="35" height="54" fill="url(#glass)" stroke="#6f7979"/>
    <rect x="397" y="1196" width="35" height="54" fill="url(#glass)" stroke="#6f7979"/>
    <line x1="396" y1="1196" x2="396" y2="1250" stroke="#4d5555"/>
    <circle cx="392" cy="1225" r="2" fill="#3a403f"/>
    <circle cx="401" cy="1225" r="2" fill="#3a403f"/>

    <!-- Dorm entrance sconces -->
    <rect x="316" y="1203" width="8" height="18" rx="2" fill="#3a332d"/>
    <rect x="466" y="1203" width="8" height="18" rx="2" fill="#3a332d"/>

    <!-- Landscaping -->
    <g opacity="0.9">
      <ellipse cx="138" cy="1249" rx="23" ry="15" fill="#5c7347"/>
      <ellipse cx="198" cy="1237" rx="24" ry="20" fill="#6c7e50"/>
      <ellipse cx="236" cy="1247" rx="20" ry="15" fill="#62774a"/>
      <ellipse cx="278" cy="1246" rx="24" ry="14" fill="#5f7349"/>
      <ellipse cx="515" cy="1247" rx="24" ry="15" fill="#5d7048"/>
      <ellipse cx="566" cy="1248" rx="25" ry="14" fill="#687a4d"/>
      <ellipse cx="615" cy="1239" rx="24" ry="19" fill="#617348"/>
      <ellipse cx="656" cy="1249" rx="23" ry="13" fill="#65794c"/>
      <polygon points="170,1251 182,1201 196,1251" fill="#5e7448"/>
      <polygon points="630,1251 645,1200 661,1251" fill="#5e7448"/>
    </g>

    <!-- Foundation and ground line -->
    <rect x="90" y="1257" width="600" height="28" fill="url(#groundHatch)" opacity="0.78"/>
    <line x1="60" y1="1257" x2="710" y2="1257" stroke="#1f1d1b" stroke-width="2"/>
  </g>

  <!-- Connex container -->
  <g id="connex-box" filter="url(#softShadow)">
    <ellipse cx="820" cy="1272" rx="142" ry="11" fill="#000000" opacity="0.12"/>
    <rect x="725" y="1142" width="220" height="116" fill="url(#connexOrange)" stroke="#7a442d" stroke-width="2"/>
    <rect x="725" y="1142" width="220" height="8" fill="#d97845"/>
    <rect x="725" y="1250" width="220" height="8" fill="#c96c3d"/>

    <!-- Corner blocks -->
    <rect x="720" y="1137" width="8" height="8" fill="#e28652" stroke="#6f3c28" stroke-width="2"/>
    <rect x="943" y="1137" width="8" height="8" fill="#e28652" stroke="#6f3c28" stroke-width="2"/>
    <rect x="720" y="1254" width="8" height="8" fill="#e28652" stroke="#6f3c28" stroke-width="2"/>
    <rect x="943" y="1254" width="8" height="8" fill="#e28652" stroke="#6f3c28" stroke-width="2"/>

    <!-- Corrugated ribs -->
    <line x1="748" y1="1154" x2="748" y2="1248" stroke="#ab5e3d" stroke-width="1"/>
    <line x1="763" y1="1154" x2="763" y2="1248" stroke="#ab5e3d" stroke-width="1"/>
    <line x1="778" y1="1154" x2="778" y2="1248" stroke="#ab5e3d" stroke-width="1"/>
    <line x1="793" y1="1154" x2="793" y2="1248" stroke="#ab5e3d" stroke-width="1"/>
    <line x1="808" y1="1154" x2="808" y2="1248" stroke="#ab5e3d" stroke-width="1"/>
    <line x1="823" y1="1154" x2="823" y2="1248" stroke="#ab5e3d" stroke-width="1"/>
    <line x1="838" y1="1154" x2="838" y2="1248" stroke="#ab5e3d" stroke-width="1"/>
    <line x1="853" y1="1154" x2="853" y2="1248" stroke="#ab5e3d" stroke-width="1"/>
    <line x1="868" y1="1154" x2="868" y2="1248" stroke="#ab5e3d" stroke-width="1"/>
    <line x1="883" y1="1154" x2="883" y2="1248" stroke="#ab5e3d" stroke-width="1"/>
    <line x1="898" y1="1154" x2="898" y2="1248" stroke="#ab5e3d" stroke-width="1"/>
    <line x1="913" y1="1154" x2="913" y2="1248" stroke="#ab5e3d" stroke-width="1"/>

    <!-- Door split / latch -->
    <line x1="850" y1="1150" x2="850" y2="1250" stroke="#8a4b31" stroke-width="1.5"/>
    <line x1="853" y1="1200" x2="864" y2="1200" stroke="#423025" stroke-width="2"/>
    <line x1="860" y1="1193" x2="860" y2="1214" stroke="#423025" stroke-width="2"/>
    <circle cx="858" cy="1204" r="2.5" fill="#2f241e"/>

    <!-- Label plate -->
    <rect x="742" y="1155" width="85" height="22" rx="3" fill="#171514"/>
    <text x="784.5" y="1171" text-anchor="middle" class="badge-text" font-size="12">CONNEX</text>

    <!-- Inventory count -->
    <text x="881" y="1233" text-anchor="middle" class="small-mono">7 · 1,902</text>

    <!-- Small feet -->
    <rect x="775" y="1256" width="24" height="6" fill="#45362c"/>
    <rect x="877" y="1256" width="24" height="6" fill="#45362c"/>
  </g>

  <!-- Legend and summary -->
  <g id="legend">
    <line x1="40" y1="1330" x2="960" y2="1330" stroke="#d8d1ca" stroke-width="1.5"/>

    <rect x="48" y="1382" width="31" height="31" rx="3" fill="none" stroke="#aaa49d" stroke-width="2"/>
    <text x="105" y="1406" class="legend-text">empty</text>

    <rect x="220" y="1391" width="590" height="14" rx="7" fill="url(#busyFloor)"/>
    <text x="855" y="1406" class="legend-text">busy</text>
    <rect x="930" y="1382" width="31" height="31" rx="4" fill="#f4a36f" stroke="#d18359"/>

    <text x="48" y="1470" class="summary-strong">25</text>
    <text x="102" y="1470" class="summary-text">lines ·</text>
    <text x="248" y="1470" class="summary-strong">3,862</text>
    <text x="360" y="1470" class="summary-text">units on site ·</text>
    <text x="645" y="1470" class="summary-orange">7</text>
    <text x="690" y="1470" class="summary-text">in connex</text>
  </g>
</svg>
